<svg width="19" height="19" viewBox="0 0 19 19" fill="none" xmlns="http://www.w3.org/2000/svg">
<path d="M0.460938 18.5385L2.02634 13.2231C1.70967 12.5526 1.45935 11.8653 1.27536 11.1613C1.0914 10.4572 0.999413 9.73678 0.999413 9C0.999413 7.755 1.23557 6.585 1.70789 5.49C2.18022 4.395 2.82124 3.4425 3.63094 2.6325C4.44064 1.8225 5.39278 1.18125 6.48736 0.708749C7.58196 0.236249 8.75153 0 9.99606 0C11.2406 0 12.4107 0.236158 13.5063 0.708475C14.6019 1.18081 15.555 1.82182 16.3654 2.63152C17.1759 3.44122 17.8175 4.39337 18.2903 5.48795C18.763 6.58255 18.9994 7.75212 18.9994 8.99665C18.9994 10.2412 18.7632 11.4113 18.2907 12.5069C17.8182 13.6025 17.1769 14.5556 16.3669 15.366C15.5569 16.1765 14.6044 16.8181 13.5094 17.2909C12.4144 17.7636 11.2444 18 9.99941 18C9.26263 18 8.54221 17.908 7.83816 17.7241C7.13413 17.5401 6.44685 17.2897 5.77634 16.9731L0.460938 18.5385ZM1.94941 17.05L5.14941 16.1C5.40838 16.0333 5.64588 16.0019 5.86191 16.0058C6.07795 16.0096 6.30711 16.0744 6.54941 16.2C7.08275 16.4667 7.64108 16.6667 8.22441 16.8C8.80775 16.9333 9.39941 17 9.99941 17C12.2327 17 14.1244 16.225 15.6744 14.675C17.2244 13.125 17.9994 11.2333 17.9994 9C17.9994 6.76667 17.2244 4.875 15.6744 3.325C14.1244 1.775 12.2327 1 9.99941 1C7.76608 1 5.87441 1.775 4.32441 3.325C2.77441 4.875 1.99941 6.76667 1.99941 9C1.99941 9.6 2.06608 10.1917 2.19941 10.775C2.33275 11.3583 2.53275 11.9167 2.79941 12.45C2.91608 12.6667 2.98179 12.8958 2.99654 13.1375C3.01127 13.3792 2.9789 13.6167 2.89941 13.85L1.94941 17.05Z" fill="#8D8D8D"/>
</svg>
