<svg width="64" height="64" viewBox="0 0 64 64" fill="none" xmlns="http://www.w3.org/2000/svg">
<path d="M38.8904 31.3934C38.8666 31.7345 38.6644 32.0415 38.2958 32.3485C38.1531 32.4622 37.9985 32.5759 37.8558 32.6782C37.725 32.7806 37.606 32.8829 37.4752 32.9738C36.9757 33.349 36.4525 33.5878 35.9055 33.6788C33.8006 34.0312 32.4449 34.0767 31.9097 33.8152C31.2914 33.5196 31.1249 32.394 31.0535 31.9733V31.8369C30.9703 31.4844 30.7562 30.7453 30.7443 30.734C30.7443 30.7112 30.7324 30.6999 30.7324 30.6885C30.7562 30.6203 30.8989 30.5293 30.9703 30.4725L31.0535 30.3929C31.6719 29.8585 32.433 29.3014 33.4557 29.1649C33.8125 29.1195 34.1454 28.9944 34.4665 28.8807C34.6211 28.8125 34.7757 28.767 34.9422 28.7215C35.2038 28.6306 35.4298 28.6306 35.6082 28.6988C36.5833 29.0512 37.6655 29.5288 38.4979 30.4156C38.7952 30.7453 38.9379 31.0751 38.9142 31.4048L38.8904 31.3934Z" fill="#FFE888"/>
<path d="M35.3347 37.3044C34.9779 37.5773 34.5855 37.9297 34.2525 38.3732C33.9909 38.7256 33.5984 38.8507 33.206 38.9417C33.1822 38.9417 33.1703 38.953 33.1584 38.953L31.8979 39.3055C31.8146 39.3396 31.6838 39.3737 31.5054 39.4192H31.4579C30.3995 39.7034 29.5195 39.5897 28.6632 39.0667C27.6881 38.4755 27.367 37.6 27.6881 36.5312C28.0449 35.4511 28.7108 34.7917 29.7335 34.5301C29.8524 34.496 29.9595 34.4278 30.0308 34.3823C30.0665 34.3482 30.1497 34.2914 30.1735 34.2914C30.2687 34.3369 30.34 34.4506 30.4233 34.5529C30.4708 34.6211 30.5184 34.6666 30.5541 34.7121C31.0654 35.3147 31.7314 35.6103 32.5282 35.6103H32.5638C33.2893 35.6103 33.9909 35.5648 34.526 35.508C35.1682 35.4738 35.4774 35.633 35.7033 36.1447C35.8698 36.5426 35.739 36.9519 35.3228 37.293L35.3347 37.3044Z" fill="#F4D13D"/>
<path d="M26.3917 39.3739C26.3917 39.3739 26.3679 39.3966 26.356 39.408C26.0587 39.8173 25.1073 40.147 24.4057 40.2948C24.3938 40.2948 24.37 40.3062 24.3344 40.3062C24.0846 40.4085 23.7873 40.454 23.3473 40.454C21.9441 40.6587 21.5992 40.4767 21.5873 40.4767C21.5635 40.4426 21.5159 40.4085 21.4684 40.3971C21.397 40.3858 21.3019 40.3517 21.1235 40.2834C20.3505 39.9651 19.5894 39.6467 18.8283 39.3284C18.4954 39.2033 18.4121 39.0669 18.4121 39.0328C18.4835 37.9185 19.637 36.4859 20.8381 36.4632L21.6349 36.4404C22.1224 36.4177 22.5862 36.4063 23.0619 36.395C23.3473 36.3836 23.6684 36.4063 23.93 36.5314C24.1322 36.6224 24.2987 36.6451 24.4533 36.5769C24.6317 36.5087 24.7625 36.3722 24.8695 36.1335L24.9052 36.0311C24.9409 35.9288 24.9884 35.8151 25.036 35.7128C25.0479 35.6787 25.0598 35.6787 25.0717 35.69C25.0598 35.9515 25.1192 36.1562 25.2738 36.2926C25.4046 36.4404 25.6187 36.5087 25.8922 36.4973C25.6901 37.3159 25.9755 38.055 26.2252 38.7144C26.2728 38.8508 26.3203 39.01 26.3441 39.1692L26.3679 39.3056L26.3798 39.3511L26.3917 39.3739Z" fill="#FFE888"/>
<path d="M26.9622 32.8578C26.0465 33.8129 24.9644 34.4382 23.7633 34.7225C23.5373 34.7907 23.2995 34.7907 23.0379 34.8021C22.9189 34.8021 22.7881 34.8021 22.6811 34.8135C22.1222 34.8135 21.373 34.768 20.6713 34.3928C19.4821 33.7333 19.2562 31.9824 19.8746 30.925C20.2076 30.3451 20.6238 29.9699 21.1708 29.7766C21.7773 29.5606 22.4314 29.4241 23.1211 29.3787H23.2281C23.6444 29.3787 24.0011 29.5492 24.2152 29.8903C24.6433 30.5839 25.2736 30.9591 26.1893 31.0728C26.6887 31.1182 27.0693 31.3911 27.2239 31.7777C27.3666 32.1529 27.2595 32.5509 26.9503 32.8806L26.9622 32.8578Z" fill="#F4D13D"/>
<path d="M32.2665 27.7305C31.5886 28.515 30.6967 29.0039 29.7454 29.5269L29.6621 29.5724C28.8773 29.743 28.247 29.6975 28.2232 29.6975C27.3551 29.7202 26.6653 29.5611 26.0469 29.22C25.5237 28.9471 25.1194 28.2308 25.048 27.4804C25.0123 27.0711 25.0599 26.2865 25.7853 25.7294C26.154 25.4338 26.4988 25.2405 26.8318 25.1041L27.0578 25.0017C27.0578 25.0017 27.5453 24.7402 28.3421 24.7402C28.3897 24.7402 28.4491 24.7516 28.4967 24.7516C28.8654 24.7971 29.234 24.8198 29.5789 24.8312C29.8524 24.8426 30.1378 24.8426 30.4232 24.8653C30.5897 24.888 30.7205 24.8994 30.7919 24.9108C30.8038 24.9222 30.8275 24.9335 30.8632 24.9335C30.9703 24.9563 31.327 25.07 31.7551 25.4452C32.2546 25.8886 32.3141 26.0478 32.3854 26.2183C32.3854 26.2411 32.3973 26.2638 32.4092 26.2865C32.7897 26.7413 32.7541 27.1506 32.2665 27.7305Z" fill="#F4D13D"/>
<path d="M63.8862 31.7903C63.7554 31.3469 63.4819 31.0626 63.0419 30.9148C62.6257 30.7784 62.2214 30.6533 61.8289 30.4714C60.4494 29.8461 58.9391 29.2321 57.3218 28.9478C56.2515 28.7546 55.1456 28.584 54.0872 28.4248C53.0526 28.2656 51.9704 28.1065 50.9239 27.9246C49.3185 27.6403 47.606 27.5266 45.8579 27.5835C46.8092 26.9922 47.392 26.1167 47.832 25.3436C47.9747 25.1048 48.1055 24.8547 48.2363 24.6159C48.379 24.3544 48.5217 24.0929 48.6763 23.8428C49.3066 22.7626 49.2233 21.8189 48.3909 20.898C48.0579 20.5228 47.6655 20.3977 47.1779 20.5C46.0244 20.7274 44.859 21.0913 43.3725 21.6484C42.8968 21.8303 42.4092 21.9895 41.9335 22.1259C41.0059 22.4215 40.0427 22.7172 39.1508 23.2629C39.1627 23.2402 39.1627 23.2174 39.1746 23.2061L39.2102 23.1265C39.4719 22.467 39.7335 21.8189 39.9951 21.1595C40.5065 19.9088 41.0297 18.6126 41.5054 17.3165C41.874 16.3159 42.2189 15.2926 42.5519 14.3035C42.9681 13.0869 43.3843 11.8248 43.8481 10.6083C44.3952 9.17566 44.2644 7.8795 43.4557 6.66293C43.2535 6.36731 42.9562 5.91252 42.3616 5.85567C41.1011 5.75334 40.1021 6.11717 39.4243 6.95854L39.234 7.18594C38.5681 8.00457 37.8783 8.84594 37.141 9.63046C36.4037 10.415 35.595 11.1768 34.8221 11.9158C34.061 12.6207 33.288 13.3598 32.5626 14.1216C32.5388 14.1443 32.515 14.167 32.4912 14.1898C32.4793 14.1898 32.4793 14.2011 32.4674 14.2011C32.3009 13.7009 32.1226 13.212 31.9442 12.7231C31.7896 12.3024 31.635 11.8817 31.4923 11.461C31.195 10.631 30.7431 9.86923 30.1485 9.20977C29.435 8.42525 28.6144 8.31156 27.6987 8.85731C26.3549 9.66457 25.3679 10.9039 24.69 12.6548C24.0479 14.2921 24.0479 15.9976 24.0835 17.6121C24.0954 17.8281 24.0954 18.0328 24.0954 18.2488C24.036 18.1237 23.9884 17.9987 23.9289 17.8736C23.6197 17.1459 23.2868 16.3842 22.7754 15.7247C22.4543 15.3268 22.1332 14.9402 21.8003 14.5422C21.3484 13.9965 20.8846 13.4394 20.4446 12.8709C19.1008 11.0631 17.4835 9.32347 15.2121 7.22005C14.118 6.2195 12.9288 5.19622 11.3472 3.90005C11.1688 3.76361 11.0023 3.61581 10.8358 3.47937C10.3482 3.07005 9.84875 2.64937 9.31361 2.28553C9.11145 2.16047 8.52874 1.77389 7.98171 2.18321C7.16115 2.80855 6.74493 3.50211 6.69736 4.298C6.64979 5.128 6.75682 5.96937 6.86385 6.68567C7.01845 7.67484 7.29197 8.61854 7.64873 9.74416C7.94603 10.6765 8.27901 11.6657 8.77847 12.598C9.1828 13.3143 9.61092 14.0988 9.89633 14.9402C10.1698 15.7588 10.5623 16.6115 11.1212 17.6348C11.7991 18.8741 12.5839 20.068 13.345 21.2277C13.678 21.7394 14.011 22.2396 14.3439 22.7626C14.5937 23.1378 14.8434 23.5585 15.0813 24.0247C14.998 23.9792 14.9148 23.9337 14.8196 23.8996C12.7385 23.0014 10.812 22.4329 8.93306 22.16C8.81414 22.1373 8.68333 22.1259 8.55252 22.1146L8.30278 22.0804C6.30491 21.7848 4.48544 21.8531 2.73731 22.2624C2.4519 22.3306 2.20216 22.467 1.97622 22.6603C1.34594 23.2061 1.2389 24.4567 1.76215 25.2754C2.32108 26.1622 3.14164 26.8217 3.92651 27.447L4.05732 27.5493C4.20003 27.6744 4.35462 27.7995 4.49732 27.9246C5.04436 28.3793 5.61519 28.8341 6.23357 29.2435C5.746 29.1525 5.27032 29.107 4.78274 29.107C2.97515 29.107 1.48864 29.8915 0.358895 31.4492C0.0615941 31.8585 -0.057325 32.3019 0.0259194 32.7113C0.109164 33.1433 0.406467 33.5299 0.882149 33.8369C1.14377 34.0074 1.44108 34.1439 1.73838 34.2803C2.44001 34.5987 3.15352 34.8943 3.84326 35.133C4.50921 35.3718 5.08004 35.7584 5.67464 36.1677C5.85303 36.2928 6.04329 36.4178 6.22167 36.5315C6.99465 37.0318 7.79143 37.3047 8.64766 37.3615C8.76658 37.3615 8.8855 37.3729 9.00442 37.3843C9.21848 37.3956 9.43254 37.4184 9.6347 37.4184C9.58713 37.4525 9.55146 37.4866 9.50389 37.5207C9.3374 37.623 9.17091 37.7367 9.01631 37.8504C7.63683 38.8851 6.29302 40.1244 4.66381 41.8867C3.16541 43.5126 2.02378 45.3204 1.28647 47.2533C0.465922 49.4136 0.323217 51.3578 0.858359 53.177C1.28647 54.6323 1.58377 55.3373 3.73623 55.4623C5.00868 55.5306 5.78166 55.1212 6.25734 54.1321C6.53086 53.5522 6.98277 53.0406 7.62494 52.563C8.25522 52.1082 8.84981 51.5284 9.39684 50.8462C10.5266 49.4136 12.0726 47.5717 13.9396 46.014C14.0229 45.9458 14.118 45.8776 14.2131 45.8207C14.2488 45.798 14.2964 45.7639 14.3321 45.7411L14.2607 45.9912C14.1299 46.4119 13.9991 46.844 13.8921 47.276C13.4521 49.0156 13.1666 50.8575 13.0596 52.7677C12.9288 55.0871 12.9645 57.0086 13.1666 58.8278C13.2618 59.6123 13.4639 60.6242 14.1656 61.4884L14.2131 61.5452C14.3796 61.7499 14.5937 62 14.9504 62H14.998C15.7115 61.9432 16.6272 61.7953 17.317 61.0563C17.4953 60.863 17.6737 60.6697 17.8402 60.4764C18.0186 60.2832 18.1851 60.0899 18.3635 59.908L18.744 59.4986C19.5646 58.6118 20.4089 57.6908 21.0748 56.6562C21.1105 56.5993 21.1343 56.5766 21.1343 56.5652C21.1462 56.5766 21.17 56.5993 21.1938 56.6448C21.277 56.7812 21.3841 56.8949 21.4911 57.0086L21.5505 57.0769C21.717 57.2474 21.8716 57.327 22.05 57.3384C22.2046 57.3497 22.3711 57.2701 22.5257 57.1337C22.7041 56.9745 22.8824 56.8267 23.0608 56.6789C23.7625 56.0763 24.4879 55.4623 24.9398 54.5869C25.0111 54.4618 25.1063 54.3367 25.2371 54.2117C25.2727 54.1662 26.0576 53.1543 26.3668 52.5858L26.3906 52.5517C26.3906 52.5517 26.4144 52.4948 26.4263 52.4834C26.8782 51.5397 27.1398 50.6756 27.2349 49.857C27.2468 49.7433 27.2825 49.6523 27.3776 49.5386C27.4609 49.4477 27.5798 49.3112 27.6749 49.2885C27.8176 49.5841 28.8047 51.5397 29.4468 52.3129C29.4825 52.3584 29.5182 52.4038 29.5539 52.4493L29.6371 52.5403C30.0533 53.0633 30.4815 53.5977 30.9453 54.098C32.3009 55.5419 33.7756 57.0655 35.5475 58.3048C37.1053 59.3963 38.6513 60.0899 40.2686 60.4082C41.3032 60.6242 42.2546 59.8625 42.4568 59.0552C42.6114 58.4185 42.4924 57.8273 42.3378 57.2247C42.1951 56.6789 42.0643 56.1332 41.9335 55.576C41.7194 54.7119 41.5054 53.8137 41.2676 52.9382C40.7681 51.1418 40.114 49.0611 38.9367 47.1396L39.0437 47.1737C39.2102 47.2419 39.3767 47.2988 39.5551 47.367L39.9713 47.5148C40.8275 47.8332 41.7076 48.1515 42.6114 48.3789C44.3 48.7882 45.9649 48.7541 47.8201 48.6632C48.9498 48.6177 49.9369 48.2311 50.7574 47.5148C51.0428 47.276 51.1142 47.0032 50.9715 46.6621C50.8644 46.4006 50.6861 46.2073 50.4958 46.0254L50.4007 45.9117C50.1034 45.6047 49.8179 45.2977 49.5206 44.9907C48.926 44.3767 48.3076 43.7514 47.7725 43.0806C47.6179 42.8759 47.4514 42.6826 47.2968 42.478C46.6428 41.648 45.9649 40.7952 45.18 40.0334C44.966 39.8288 44.7876 39.59 44.5973 39.3399L44.4546 39.158C44.4546 39.158 44.4427 39.1352 44.4308 39.1352H44.4546C45.5606 39.2489 46.6666 39.2034 47.8201 38.9874C49.6039 38.6691 51.3758 38.4076 53.1001 38.1688C53.5401 38.1006 53.9683 38.0437 54.4083 37.9869C55.324 37.8618 56.2753 37.7367 57.2029 37.5548C57.631 37.4752 58.0235 37.3161 58.4159 37.1455C59.2008 36.793 59.8667 36.5315 60.5327 36.3382C61.3176 36.0881 62.3165 35.7015 63.03 34.8602C63.8981 33.8482 64.1835 32.8477 63.8862 31.7903ZM42.207 23.4335L42.4568 23.3539C42.873 23.2061 43.2773 23.0696 43.6816 22.9332C44.6806 22.6035 45.7271 22.251 46.726 21.8417C46.9282 21.7507 47.1185 21.7507 47.2612 21.8417C47.4395 21.9554 47.5466 22.2169 47.5466 22.5352C47.5466 22.8081 47.3325 23.1492 47.1898 23.3766C46.5476 24.434 45.7865 25.662 44.9184 26.7876C44.526 27.322 43.9789 27.6744 43.2892 27.845C43.0514 27.9132 42.8135 27.97 42.5757 28.0269C41.8384 28.1974 41.0892 28.368 40.3876 28.7091C39.2221 29.2889 38.3778 29.8802 37.7237 30.5851L37.6643 30.6533L37.5572 30.7556C37.2361 31.074 37.2362 31.0854 36.9151 30.8125C36.0351 30.1076 35.274 29.6982 34.4772 29.4822C34.4891 29.4709 34.501 29.4709 34.5129 29.4595C34.7626 29.2776 35.0004 29.0956 35.2502 28.9137L35.7259 28.5726C36.1659 28.2429 36.5464 27.845 36.9032 27.4584C37.1291 27.2196 37.367 26.9809 37.6048 26.7535C37.7475 26.6284 37.9021 26.5147 38.0567 26.401C38.3778 26.1622 38.6989 25.9235 38.901 25.5824C39.6265 24.3203 40.887 23.8883 42.207 23.4335ZM25.2252 32.5407C25.6771 32.5862 26.0219 32.825 26.1646 33.1774C26.2955 33.5185 26.2003 33.8824 25.9149 34.178C25.0825 35.0421 24.1073 35.6106 23.0133 35.8721C22.8111 35.9289 22.597 35.9289 22.3592 35.9403C22.2522 35.9403 22.1332 35.9403 22.0381 35.9517C21.5267 35.9517 20.8489 35.9062 20.2186 35.5651C19.1364 34.9625 18.9343 33.3821 19.4932 32.4156C19.7905 31.8926 20.1711 31.5515 20.6705 31.3696C21.2176 31.1763 21.8121 31.0513 22.4424 31.0058H22.5376C22.9181 31.0058 23.2392 31.165 23.4295 31.4719C23.8219 32.0973 24.3927 32.4384 25.2252 32.5407ZM24.8565 27.7085C25.1895 27.4356 25.4987 27.2651 25.8079 27.14L26.01 27.0491C26.01 27.0491 26.4501 26.8103 27.1755 26.8103C27.223 26.8103 27.2706 26.8217 27.3182 26.8217C27.6512 26.8672 27.9841 26.8785 28.3052 26.8899C28.555 26.8899 28.8166 26.8899 29.0663 26.924C29.2209 26.9467 29.3398 26.9581 29.3993 26.9695C29.3993 26.9695 29.435 26.9922 29.4587 26.9922C29.5539 27.015 29.875 27.1173 30.2674 27.4584C30.7193 27.8563 30.7788 28.0041 30.8382 28.1633C30.8382 28.1861 30.8501 28.2088 30.862 28.2202C31.2069 28.6295 31.1712 29.0047 30.7312 29.5277C30.1128 30.244 29.3041 30.6874 28.4479 31.1536L28.3766 31.1991C27.663 31.3582 27.0922 31.3128 27.0684 31.3128C26.2836 31.3355 25.6533 31.1877 25.0944 30.8807C24.6187 30.6306 24.25 29.9825 24.1906 29.3003C24.1549 28.9251 24.2024 28.2202 24.8565 27.7085ZM26.9257 34.5191C27.2349 33.9165 27.3301 33.3821 27.2349 32.8363C27.223 32.7795 27.223 32.7567 27.2112 32.7454H27.3182C27.3895 32.7454 27.4728 32.7567 27.5441 32.734C28.0079 32.734 28.0793 32.7795 28.2101 33.1661C28.3052 33.4276 28.3766 33.7004 28.436 33.9733L28.4955 34.2235C28.5193 34.2917 28.5074 34.3485 28.4004 34.394L28.2933 34.4395C28.1031 34.5304 27.9128 34.6214 27.7225 34.6669C27.116 34.8147 26.6046 35.1217 26.1409 35.5878L26.0814 35.6447C25.9387 35.7925 25.8079 35.9289 25.6295 35.9971C26.2122 35.5878 26.6522 35.0876 26.9257 34.5191ZM26.569 37.5093C26.8901 36.5315 27.4965 35.9289 28.4241 35.6902C28.5312 35.6561 28.6263 35.5992 28.6977 35.5537C28.7333 35.5196 28.8047 35.4741 28.8285 35.4741C28.9117 35.5196 28.9831 35.6219 29.0544 35.7129C29.102 35.7698 29.1377 35.8152 29.1733 35.8607C29.6371 36.4065 30.2436 36.6793 30.969 36.6793H31.0047C31.6588 36.6793 32.301 36.6339 32.7885 36.5884C33.3712 36.5543 33.6566 36.7021 33.8588 37.1682C34.0134 37.5321 33.8945 37.8959 33.5139 38.2143C33.1929 38.4644 32.8361 38.7828 32.5269 39.1807C32.2891 39.4991 31.9323 39.6128 31.5755 39.6924C31.5518 39.6924 31.5398 39.7037 31.528 39.7037L30.3863 40.0221C30.315 40.0562 30.1961 40.0789 30.0296 40.1244H29.982C29.0187 40.3859 28.222 40.2836 27.449 39.806C26.569 39.2717 26.2717 38.4758 26.569 37.5093ZM30.3982 35.0421C29.8393 34.7692 29.6847 33.7573 29.6252 33.3707V33.2456C29.5539 32.9273 29.3517 32.2565 29.3398 32.2451C29.3398 32.2224 29.3398 32.211 29.3398 32.1996C29.3636 32.1428 29.4944 32.0518 29.5539 32.0063L29.6252 31.9381C30.1842 31.4492 30.8739 30.9489 31.8015 30.8239C32.1226 30.7784 32.4318 30.6647 32.7172 30.5624C32.8599 30.5055 33.0026 30.46 33.1453 30.4146C33.3831 30.335 33.5853 30.335 33.7518 30.3918C34.6318 30.7102 35.6188 31.1422 36.368 31.9495C36.6415 32.2451 36.7724 32.5521 36.7486 32.8477C36.7248 33.1547 36.5464 33.4389 36.2134 33.7118C36.0826 33.8141 35.9399 33.9165 35.8091 34.0074C35.6902 34.0984 35.5832 34.1893 35.4642 34.2803C35.0123 34.6214 34.5366 34.8374 34.0372 34.917C32.1226 35.2354 30.8977 35.2808 30.4101 35.0421H30.3982ZM34.5723 38.1006C34.608 37.9528 34.6675 37.7936 34.7507 37.6458C34.8934 37.407 35.048 37.1 35.048 36.7248C35.048 36.5429 35.0123 36.3496 34.9172 36.145C35.2383 35.9176 35.5475 35.7015 35.8567 35.4628C35.9875 35.3718 36.1302 35.3377 36.2729 35.3832C36.4869 35.4287 36.6415 35.5651 36.7129 35.7811C36.7129 35.7811 36.8318 35.9971 36.8437 36.3837C36.8437 36.7703 36.7367 37.0659 36.5226 37.2478C36.4988 37.2592 36.487 37.2706 36.4632 37.2819C36.4632 37.2819 36.4275 37.3161 36.4037 37.3274C36.2729 37.4184 36.1421 37.5207 36.0113 37.6117C35.6783 37.8732 35.3453 38.1119 34.941 38.1915L34.6912 38.2256C34.5961 38.2484 34.5723 38.2143 34.5723 38.2143C34.5723 38.2143 34.5486 38.1915 34.5723 38.1006ZM31.7777 16.9526C31.7777 16.9526 31.8372 16.9072 31.849 16.8844L33.0739 15.4291L33.288 15.2244L34.9053 13.735C35.2383 13.3825 35.595 13.0528 35.9518 12.7344C36.3442 12.3933 36.7367 12.0295 37.0934 11.6429C37.5453 11.154 38.0091 10.6765 38.4729 10.2103C38.6632 10.017 38.8535 9.81238 39.0437 9.61909C39.4956 9.15293 39.8524 8.65265 40.1259 8.14101C40.4113 7.59526 41.327 7.08361 41.9811 7.11772C42.0762 7.12909 42.1357 7.1632 42.207 7.2769C42.5995 7.85676 42.7897 8.41388 42.7897 8.99375C42.7897 9.39169 42.7065 9.7669 42.54 10.1194C41.8146 11.7453 41.2794 13.4621 40.7681 15.1221C40.6611 15.4518 40.554 15.7815 40.4589 16.1113C39.6621 18.624 38.6632 21.5802 37.3313 24.3658C36.808 25.48 36.2967 26.4692 35.4405 27.2651C35.1313 27.5607 34.7745 27.8904 34.3702 28.1292C33.8112 28.4476 33.2523 28.8341 32.7172 29.2889C32.4555 29.505 32.1464 29.5504 31.8015 29.5959C31.8372 29.4709 31.8847 29.3572 31.9442 29.2435C32.3842 28.2202 32.1939 27.5152 31.2901 26.8217C30.7193 26.3896 30.1009 25.9462 29.2804 25.8552C29.0425 25.8211 28.8641 25.6506 28.7095 25.2981C28.329 24.4454 28.2339 23.5699 28.4241 22.7172C28.8285 20.9321 29.6966 19.3062 30.9809 17.885C31.1712 17.6917 31.3377 17.4757 31.4685 17.2596C31.5518 17.1232 31.6588 17.0095 31.7777 16.9526ZM25.0944 17.4188C25.0944 17.1459 25.1181 16.8731 25.1181 16.6002C25.1419 16.4524 25.249 15.7361 25.3679 15.088L25.4273 14.7355C25.6533 13.5417 25.8792 12.4161 26.676 11.4724C27.1755 10.8811 27.782 10.415 28.4836 10.0966C28.7095 9.98292 29.0663 9.90334 29.4944 10.3809C29.7917 10.722 30.0415 11.1199 30.2198 11.5861C30.529 12.382 30.8263 13.1779 31.1236 13.9851L31.3734 14.6787C31.528 15.0652 31.4685 15.3381 31.195 15.6224C30.3744 16.4978 29.3517 17.5894 28.6025 18.8059C27.6393 20.3863 27.1041 21.7621 26.9257 23.1265C26.7949 24.1043 26.9376 25.0139 27.3657 25.7984C27.3776 25.8325 27.4014 25.8666 27.4014 25.8893H27.3301C27.1636 25.878 27.009 25.9007 26.8306 25.9121C26.7592 25.9235 26.6879 25.9235 26.569 25.9462C26.4857 25.9576 26.4619 25.9576 26.4619 25.9576C26.4619 25.9576 26.4382 25.9121 26.4382 25.787C26.4382 24.8547 26.2717 23.9451 25.9268 23.0014C25.4273 21.6484 25.2371 20.2158 25.1063 18.9878C25.0587 18.4762 25.0825 17.9305 25.1063 17.4188H25.0944ZM4.05732 25.5824C3.68867 25.2754 3.34379 24.9115 3.04649 24.5022C2.88 24.2976 2.82055 24.127 2.86812 23.9906C2.9038 23.8541 3.0584 23.7291 3.32002 23.6154C4.4022 23.1947 5.56761 22.9559 6.80439 22.9332C6.88763 22.9332 6.95899 22.9218 7.03034 22.9218C8.32657 22.9218 9.69415 23.1947 11.2758 23.7404C11.5374 23.8314 11.7871 23.9224 12.0369 24.002C12.7147 24.2294 13.4164 24.4567 14.0704 24.7865C14.9504 25.2072 15.7472 25.787 16.5083 26.3441C16.6748 26.4692 16.8294 26.5829 16.9959 26.6966C17.1505 26.8103 17.317 26.9354 17.4716 27.0491C17.8045 27.2992 18.1494 27.5493 18.5062 27.7767C19.1959 28.2315 19.9332 28.4703 20.7181 28.493H21.17C21.503 28.5158 21.8478 28.5158 22.1927 28.5158C22.3949 28.5158 22.5732 28.4248 22.6565 28.277C22.7397 28.1406 22.7278 27.9473 22.6089 27.7654C22.4305 27.4811 22.157 27.3106 21.8359 27.2992C20.0046 27.1969 18.7916 26.1281 17.7451 24.9911C16.9721 24.1611 16.4013 23.1833 15.8424 22.2283L15.7472 22.0691C15.0337 20.8525 14.225 19.6473 13.452 18.4876C13.2142 18.1351 12.9764 17.7826 12.7385 17.4188C12.4174 16.9299 12.1677 16.441 12.0012 15.9635C11.6444 14.8947 11.1569 13.86 10.6812 12.8709C10.5028 12.507 10.3244 12.1318 10.158 11.768C9.86065 11.1199 9.61092 10.4491 9.37307 9.78964L9.15901 9.17566C8.89738 8.4821 8.7309 7.78854 8.55252 7.00402C8.35035 6.15128 8.26711 5.2417 8.29089 4.21841C8.29089 4.01375 8.32656 3.8432 8.39792 3.68403C8.46927 3.51348 8.52873 3.47937 8.5644 3.468C8.58819 3.468 8.64765 3.468 8.80224 3.55896C9.23036 3.82046 9.64659 4.15019 10.039 4.45718C10.1817 4.57087 10.3244 4.68457 10.4553 4.79827C12.9764 6.76526 14.8196 8.36841 16.4132 10.0284C17.7689 11.4155 19.1127 12.9732 20.6824 14.9174C22.4068 17.0777 23.3819 19.5109 24.1192 21.6143C24.2143 21.8872 24.3095 22.16 24.4165 22.4215C24.6781 23.1037 24.9517 23.8087 25.0587 24.5363C25.1063 24.9002 25.1538 25.2867 25.13 25.6847C25.0944 26.31 24.7971 26.7648 24.2619 27.0263C23.037 27.6403 22.9657 28.7204 23.0251 29.4709V29.5391C23.037 29.6528 23.0489 29.7665 23.037 29.7892C23.0132 29.8119 22.8587 29.8461 22.7397 29.8574C21.4078 30.0848 20.3613 30.4373 19.4575 30.983C19.2435 31.0967 19.1008 31.2332 18.9819 31.3924C18.7321 31.7562 18.3516 31.9495 17.8283 31.9722C16.8651 32.0177 15.9969 31.9381 15.1883 31.7107C14.8434 31.6084 14.5104 31.5174 14.1656 31.4265C13.452 31.2332 12.7147 31.0285 12.0012 30.8011C10.7644 30.3918 9.53955 29.721 8.23143 28.7546L7.49413 28.2202C6.35249 27.3788 5.16329 26.5033 4.05732 25.5824ZM8.75468 36.0085C7.72007 35.9858 6.94709 35.3945 6.30492 34.8488C6.30492 34.8488 6.28114 34.8261 6.26925 34.8261C5.92438 34.485 4.97302 34.087 4.21193 33.7914C4.20004 33.7914 4.17624 33.78 4.16435 33.78C3.85516 33.7118 3.55786 33.6208 3.26056 33.4844C2.83245 33.2798 2.35676 33.0865 1.80973 32.8932C1.64324 32.8363 1.53621 32.7681 1.51243 32.6999C1.47675 32.6317 1.51242 32.5066 1.59566 32.3474C1.91675 31.7335 2.4519 31.2559 3.33191 30.8011C3.85516 30.5396 4.44977 30.3918 4.97302 30.3918H5.11572C5.7341 30.3918 6.15032 30.4714 6.50708 30.6761C7.20872 31.0626 7.98169 31.2218 8.73089 31.3582L8.95685 31.4037C9.51577 31.5174 10.0509 31.7448 10.5623 31.9609C10.7169 32.0291 10.8834 32.0973 11.038 32.1541C12.9764 32.95 15.0694 33.3935 17.2575 33.4844H17.3645C17.3645 33.4844 17.4478 33.4844 17.4716 33.4958C17.5667 33.5185 17.6618 33.5072 17.757 33.4958C17.9235 33.4844 17.9354 33.4958 17.9591 33.564C18.0781 33.8596 17.9591 34.2576 17.7451 34.4281C17.5072 34.61 17.2099 34.6441 16.8888 34.6782H16.7937C16.1396 34.7692 15.5926 34.9056 15.105 35.0876C14.4391 35.3491 13.7731 35.5992 13.1072 35.8493C12.5839 36.0426 12.0726 36.2473 11.5493 36.4406C11.4304 36.4861 11.3709 36.4974 11.3115 36.4747C10.479 36.1108 9.58713 36.0313 8.75468 36.0085ZM13.3807 44.5245C11.585 45.9685 10.0628 47.674 8.80224 49.1407C8.00548 50.0958 7.11358 50.9712 6.26925 51.7671C5.61518 52.3811 5.10382 52.9951 4.72328 53.6318C4.49733 53.9956 4.21191 54.1548 3.80758 54.1093C2.70162 54.007 2.45189 53.8933 2.21405 52.8927C2.07135 52.256 2.03567 51.608 2.02378 50.8348C1.97621 49.8115 2.35676 48.6745 2.70163 47.7991C3.60543 45.4341 5.18706 43.2511 7.50601 41.1022C9.45631 39.3058 11.4066 38.0096 13.4758 37.1114C14.8553 36.5202 16.0445 36.2132 17.2099 36.145C17.3289 36.145 17.4716 36.145 17.6024 36.0767C17.7213 36.0199 17.8283 35.9971 17.9472 35.9971C18.1732 35.9971 18.3991 36.1108 18.6964 36.3724C18.851 36.5088 19.0294 36.6566 19.0294 36.7135C19.0294 36.7703 18.8391 36.9522 18.6964 37.0773C18.1732 37.5662 17.7332 38.1119 17.4002 38.6918C16.7105 39.897 16.8294 40.7839 17.8045 41.7503C17.864 41.8071 17.8759 41.8299 17.8878 41.8413C17.8759 41.8413 17.864 41.864 17.8045 41.9095C17.6499 42.0118 17.4716 42.1028 17.2456 42.1824C15.7234 42.7167 14.451 43.6718 13.3807 44.5245ZM19.7429 56.1559C19.5527 56.3719 19.3743 56.6107 19.2078 56.8381C19.1245 56.9518 19.0413 57.0655 18.9462 57.1792C18.1018 58.2593 17.2218 59.2371 16.318 60.1126C16.1991 60.2263 16.0564 60.34 15.878 60.4651C15.5451 60.6811 15.438 60.6697 15.2002 60.3627C14.891 59.9762 14.7007 59.51 14.6175 58.9415C14.5104 58.2821 14.4866 57.5999 14.451 56.9404C14.4272 56.4629 14.4034 55.9854 14.3558 55.5078C14.2726 54.3822 14.3083 53.2225 14.4629 52.0514C14.5104 51.6534 14.558 51.2555 14.6056 50.8462C14.7364 49.6296 14.8791 48.3675 15.2358 47.1623C15.5926 45.9799 16.0326 45.093 16.651 44.3767C16.9364 44.0243 17.2456 43.8082 17.6024 43.6945C18.2802 43.4899 18.7916 43.0806 19.2673 42.6826C19.4694 42.5007 19.6478 42.4211 19.8381 42.4211C19.8975 42.4211 19.957 42.4325 20.0283 42.4552C20.2186 42.5007 20.2424 42.5803 20.2186 42.7054C20.2067 42.7736 20.1948 42.8418 20.1829 42.91C20.1711 43.0237 20.1473 43.1374 20.1116 43.2511C19.8262 44.2062 19.7192 45.1726 19.6478 46.3323C19.5765 47.6058 19.5408 48.6518 19.5408 49.6296C19.5527 51.1304 19.7667 52.5517 20.1711 53.8592C20.4684 54.7915 20.3375 55.4964 19.7429 56.1559ZM20.6229 40.9317C19.9213 40.6474 19.2316 40.3518 18.5418 40.0676C18.2445 39.9539 18.1613 39.8288 18.1613 39.7947C18.2208 38.7828 19.2673 37.4866 20.3613 37.4639L21.0867 37.4411C21.5267 37.4184 21.9549 37.407 22.383 37.3956C22.6446 37.3843 22.93 37.407 23.1678 37.5207C23.3462 37.6003 23.5008 37.623 23.6435 37.5662C23.81 37.5093 23.9289 37.3843 24.0241 37.1682L24.0597 37.0773C24.0954 36.9863 24.1311 36.884 24.1787 36.793C24.1906 36.7589 24.2025 36.7589 24.2143 36.7703C24.2143 37.0091 24.2619 37.191 24.3927 37.3161C24.5116 37.4525 24.7019 37.5093 24.9517 37.498C24.7733 38.237 25.023 38.9078 25.249 39.5104C25.2965 39.6355 25.3322 39.7833 25.356 39.9197L25.3798 40.0448L25.3917 40.0903C25.3798 40.1017 25.3679 40.113 25.356 40.1244C25.0825 40.4996 24.2262 40.7952 23.5841 40.9317C23.5722 40.9317 23.5484 40.943 23.5246 40.943C23.2987 41.034 23.0251 41.0795 22.6327 41.0795C21.3603 41.2614 21.0511 41.1022 21.0392 41.1022C21.0154 41.0681 20.9797 41.0454 20.9321 41.034C20.8727 41.0226 20.7775 40.9885 20.6229 40.9317ZM25.7841 50.4369C25.0349 52.2674 23.9646 53.8933 22.5851 55.269C22.5733 55.269 22.5495 55.3032 22.5495 55.3032C22.5019 55.3373 22.4662 55.3827 22.4187 55.4169C22.3711 55.4737 22.264 55.5647 22.2403 55.576C22.1808 55.5419 22.1451 55.4964 22.1214 55.4396C22.1214 55.4055 22.1214 55.4169 22.0976 55.3941C21.8716 54.9393 21.5862 53.7569 21.4911 53.393C21.1105 51.8695 20.9321 50.3232 20.9797 48.7996C20.9916 48.4244 20.9916 48.0492 20.9916 47.674C20.9916 47.06 20.9916 46.4347 21.0392 45.8207C21.1224 44.786 21.4078 43.7741 21.6576 43.0123C21.7765 42.6599 21.9192 42.5803 22.4424 42.5803H22.6089C22.8586 42.603 23.1322 42.6144 23.1678 42.6485C23.1916 42.6826 23.1797 42.8532 23.1797 43.001C23.1679 43.0806 23.1678 43.1715 23.1678 43.2625C23.1203 44.9111 23.7744 46.3551 24.4641 47.7081C24.476 47.7422 24.4998 47.7877 24.5235 47.8218C24.583 47.9014 24.6306 47.981 24.6544 48.0719C24.7733 48.4585 25.0587 48.6973 25.2846 48.8565C25.9149 49.2999 26.0576 49.7547 25.7841 50.4369ZM27.7701 46.1277L27.663 46.3551C27.4133 46.9008 27.1517 47.458 26.7592 47.9355C26.6522 48.0719 26.5214 48.1402 26.4025 48.1402H26.3787C26.2598 48.1288 26.1528 48.0492 26.0814 47.9128C25.4273 46.6734 24.7495 45.3886 24.4641 43.9674C24.2619 42.91 24.4879 42.1823 25.2133 41.6252C25.3441 41.5229 25.463 41.4206 25.5819 41.3182C25.689 41.2159 25.7841 41.125 25.903 41.034C25.9982 40.9658 26.0814 40.9317 26.1765 40.9317C26.2598 40.9317 26.3549 40.9658 26.4382 41.0454C26.7592 41.3296 27.116 41.5002 27.5798 41.5797C28.0317 41.6593 28.2933 41.955 28.3647 42.4666C28.3885 42.6713 28.4122 42.8987 28.4241 43.1147C28.436 43.2284 28.4479 43.3534 28.4479 43.4558C28.4955 44.4563 28.1387 45.3659 27.7701 46.1277ZM40.8038 56.4629L40.8513 56.6675C41.0059 57.3043 41.1486 57.8955 41.22 58.4753C41.22 58.7482 41.1367 58.9529 40.9822 59.0666C40.8395 59.1575 40.6492 59.1689 40.4232 59.1007C39.7454 58.8847 39.0319 58.6459 38.1518 58.3389C37.7237 58.1911 37.3313 57.9523 36.8556 57.5658C36.4275 57.2019 35.9756 56.8608 35.5356 56.5197C34.6556 55.8489 33.7518 55.144 32.9907 54.314C31.5993 52.7677 30.3744 51.3464 29.4231 49.6865C29.1852 49.2544 29.0425 48.7882 28.8879 48.2993C28.8047 47.9923 28.7095 47.674 28.5787 47.3784C28.5431 47.2533 28.6144 47.1055 28.662 47.0373C29.4825 45.7411 29.7917 44.2517 29.6609 42.2278C29.6252 41.6821 29.6966 41.5911 30.2793 41.466C30.4934 41.4092 30.7193 41.3751 30.9453 41.3296C31.1117 41.3069 31.2901 41.2728 31.4566 41.2386C31.8609 41.1591 32.2058 40.9658 32.5507 40.7725L32.6934 40.7043C32.6934 40.7043 32.741 40.6702 32.7529 40.6702C32.7529 40.6702 32.7529 40.6777 32.7529 40.6929C33.0145 41.7389 33.6566 42.5803 34.2869 43.3876L34.3821 43.524C34.7269 43.956 35.048 44.3654 35.3096 44.8202C35.4048 44.9793 35.5118 45.1385 35.6902 45.2408C36.7248 45.8321 37.2243 46.7985 37.7475 47.8104C38.9724 50.1867 39.9119 52.8586 40.7919 56.4629H40.8038ZM44.6449 41.2386C44.6449 41.2386 44.6449 41.25 44.6687 41.2614C45.2871 41.9436 45.8579 42.6826 46.393 43.4103L46.7379 43.8537C47.5703 44.968 48.3195 45.8321 49.0687 46.5711C49.2233 46.7189 49.2709 46.7871 49.2709 46.7871C49.2471 46.8326 49.0331 46.9236 48.9617 46.9577C48.2601 47.2988 47.4871 47.3784 46.5595 47.3897H46.4882C43.5746 47.3897 41.0416 46.7985 38.7346 45.6047C37.8664 45.1499 36.8794 44.6382 36.0826 43.8992C35.8091 43.6377 35.6307 43.3193 35.4286 42.9896C35.3096 42.8077 35.2026 42.6144 35.0599 42.4325C34.8339 42.1255 34.6318 41.8071 34.4177 41.4888C34.2988 41.3069 34.1799 41.1363 34.061 40.9544C33.9064 40.7384 33.7993 40.4769 33.7399 40.1813C33.6685 39.7833 33.7994 39.5673 34.1799 39.4422C34.3821 39.374 34.5842 39.3399 34.7626 39.3399C35.4642 39.3058 36.1302 39.067 36.8437 38.6008C36.8794 38.5781 36.9151 38.5554 36.9388 38.5326L37.0697 38.4076C37.1291 38.3621 37.3551 38.2484 38.0924 38.2484C38.2945 38.2484 38.5443 38.2598 38.8416 38.2825H38.8891C40.1616 38.2939 41.2081 38.4076 42.1832 38.8851C42.4449 39.0102 42.6827 39.1807 42.9205 39.3513C43.0395 39.4422 43.1703 39.5332 43.313 39.6355L43.3725 39.7037C44.1098 40.5906 44.5379 41.1136 44.6449 41.2386ZM62.3046 33.5072C61.9003 34.1098 61.3413 34.5759 60.6397 34.8829C58.3802 35.8493 56.3586 36.5088 54.444 36.8954C53.4807 37.0887 52.4818 37.2024 51.4828 37.2251C50.1271 37.2706 48.8309 37.5548 47.6298 37.8618C46.5833 38.1233 45.5368 38.021 44.6449 37.8959C43.6579 37.7708 42.6827 37.5207 41.7313 37.2933C41.1843 37.1569 40.6492 37.0204 40.1021 36.9067C39.8762 36.8613 39.6383 36.8158 39.4124 36.7703C39.1508 36.7134 38.8773 36.6566 38.6156 36.5998C38.2708 36.5202 38.1043 36.3382 38.0924 36.0313C38.0805 35.5082 37.9854 34.7692 37.248 34.2576C37.2362 34.2462 37.2005 34.2234 37.2005 34.2007C37.1886 34.178 37.2124 34.1325 37.248 34.0984C37.6999 33.5867 37.7832 32.95 37.807 32.4043C37.807 32.0404 37.9616 31.7903 38.2827 31.5743C38.5086 31.4265 38.7227 31.2673 38.9486 31.1081C39.2578 30.8693 39.5789 30.6306 39.9 30.4373C41.1962 29.6755 42.6589 29.323 43.9314 29.0729C44.6568 28.9251 45.3822 28.8569 46.0957 28.8455C46.8449 28.9251 47.606 28.9592 48.3433 28.9819C49.7704 29.0388 51.245 29.0956 52.6364 29.5277C53.3737 29.7437 54.1229 29.7892 54.8483 29.8233C55.1813 29.8461 55.5261 29.8574 55.8591 29.8915C56.5607 29.9711 57.2743 30.1189 57.9521 30.2554C58.2256 30.3122 58.4991 30.3691 58.7608 30.4146C58.8559 30.4373 58.951 30.4714 59.0224 30.5282C59.8429 31.0967 60.7348 31.3924 61.6743 31.688C62.1381 31.8358 62.4473 32.0632 62.5662 32.3702C62.6851 32.6885 62.59 33.0751 62.3046 33.5072Z" fill="#282828"/>
<path d="M47.4869 22.5016C47.475 22.7745 47.2847 23.1156 47.142 23.343C46.4879 24.4004 45.7268 25.6284 44.8587 26.754C44.4663 27.2884 43.9192 27.6408 43.2295 27.8114C42.9917 27.8796 42.7538 27.9364 42.516 27.9933C41.7906 28.1638 41.0295 28.3344 40.3278 28.6755C39.1743 29.2553 38.3181 29.8466 37.664 30.5515L37.6045 30.6197C37.6045 30.6197 37.5451 30.6879 37.4975 30.7221C37.1764 31.0404 37.1764 31.0518 36.8554 30.7789C35.9753 30.074 35.2142 29.6647 34.4175 29.4486C34.4175 29.4373 34.4413 29.4373 34.4532 29.4259C34.7029 29.244 34.9526 29.0621 35.1905 28.8801L35.6661 28.539C36.118 28.2093 36.4867 27.8114 36.8554 27.4248C37.0694 27.186 37.3073 26.9473 37.5451 26.7199C37.6878 26.5948 37.8424 26.4811 37.997 26.3674C38.3181 26.1286 38.6511 25.8899 38.8413 25.5488C39.5667 24.2867 40.8273 23.8547 42.1592 23.3999L42.4089 23.3203C42.8133 23.1725 43.2176 23.036 43.6219 22.8996C44.6328 22.5699 45.6674 22.2174 46.6663 21.8081C46.8685 21.7171 47.0587 21.7171 47.2014 21.8081C47.3798 21.9218 47.4869 22.1833 47.4869 22.5016Z" fill="#EFEDE4"/>
<path d="M62.2571 33.4707C61.8409 34.0733 61.282 34.5395 60.5804 34.8465C58.3328 35.8129 56.2992 36.4724 54.3846 36.8589C53.4213 37.0522 52.4224 37.1659 51.4235 37.1887C50.0678 37.2341 48.7715 37.5184 47.5705 37.8254C46.524 38.0869 45.4775 37.9846 44.5856 37.8595C43.5985 37.7344 42.6234 37.4843 41.672 37.2569C41.125 37.1204 40.5898 36.984 40.0428 36.8703C39.8168 36.8248 39.5909 36.7794 39.353 36.7339C39.0914 36.677 38.8179 36.6202 38.5563 36.5633C38.2114 36.4837 38.0449 36.3018 38.033 35.9948C38.0211 35.4718 37.926 34.7328 37.1887 34.2211C37.1887 34.2098 37.1411 34.187 37.1411 34.1643C37.1411 34.1415 37.153 34.0961 37.1887 34.062C37.6525 33.5503 37.7238 32.9136 37.7476 32.3678C37.7595 32.004 37.9141 31.7539 38.2233 31.5378C38.4492 31.39 38.6752 31.2309 38.8892 31.0717C39.1984 30.8329 39.5195 30.5941 39.8525 30.4009C41.1368 29.6391 42.6115 29.2866 43.872 29.0365C44.5974 28.8887 45.3348 28.8205 46.0364 28.8091C46.7856 28.8887 47.5467 28.9228 48.284 28.9455C49.711 29.0024 51.1856 29.0592 52.577 29.4913C53.3262 29.7073 54.0635 29.7528 54.7889 29.7869C55.1219 29.8096 55.4668 29.821 55.7998 29.8551C56.5014 29.9347 57.2149 30.0825 57.8928 30.2189C58.1663 30.2758 58.4398 30.3326 58.7014 30.3781C58.7966 30.4009 58.8917 30.435 58.963 30.4918C59.7836 31.0603 60.6874 31.3559 61.615 31.6515C62.0788 31.7994 62.388 32.0268 62.5069 32.3337C62.6258 32.6521 62.5426 33.0387 62.2571 33.4707Z" fill="white"/>
<path d="M49.224 46.7535C49.224 46.7535 48.9743 46.8899 48.9029 46.924C48.2013 47.2651 47.4283 47.3447 46.5008 47.3561H46.4294C43.5159 47.3561 40.9828 46.7649 38.6758 45.571C37.8077 45.1162 36.8206 44.6046 36.0239 43.8655C35.7503 43.604 35.572 43.2857 35.3698 42.956C35.2628 42.774 35.1438 42.5807 35.013 42.3988C34.7871 42.0918 34.573 41.7735 34.359 41.4551C34.24 41.2732 34.1211 41.1027 34.0022 40.9207C33.8476 40.7047 33.7406 40.4432 33.693 40.1476C33.6217 39.7497 33.7525 39.5336 34.1211 39.4086C34.3233 39.3403 34.5255 39.3062 34.7038 39.3062C35.4055 39.2721 36.0714 39.0334 36.785 38.5672C36.8325 38.5444 36.8563 38.5217 36.8801 38.499L36.9158 38.4649L37.0109 38.3739C37.0109 38.3739 37.2963 38.2147 38.0336 38.2147C38.2358 38.2147 38.4855 38.2261 38.7828 38.2488H38.8304C40.1028 38.2602 41.1493 38.3739 42.1364 38.8514C42.398 38.9765 42.624 39.147 42.8618 39.3176C42.9926 39.4086 43.1115 39.4995 43.2542 39.6018L43.3137 39.6701C44.051 40.5569 44.4791 41.0799 44.5861 41.205C44.598 41.205 44.598 41.2164 44.6099 41.2277C45.2283 41.9099 45.7991 42.649 46.3343 43.3766L46.6791 43.8201C47.5116 44.9343 48.2608 45.7984 49.01 46.5375C49.1646 46.6853 49.2121 46.7535 49.224 46.7535Z" fill="#F4F4F4"/>
<path d="M41.1602 58.4409C41.1602 58.7138 41.0769 58.9185 40.9223 59.0322C40.7796 59.1231 40.5894 59.1345 40.3634 59.0663C39.6856 58.8502 38.972 58.6115 38.092 58.3045C37.6639 58.1567 37.2715 57.9179 36.7958 57.5313C36.3677 57.1675 35.9158 56.8264 35.4877 56.4853C34.5958 55.8145 33.692 55.1096 32.9309 54.2796C31.5395 52.7333 30.3146 51.312 29.3633 49.652C29.1254 49.22 28.9827 48.7538 28.84 48.2649C28.7449 47.9579 28.6497 47.6396 28.5308 47.344C28.4833 47.2189 28.5546 47.0711 28.6022 47.0029C29.4346 45.7067 29.7438 44.2172 29.6011 42.1934C29.5654 41.6477 29.6368 41.5567 30.2195 41.4316C30.4336 41.3748 30.6595 41.3407 30.8854 41.2952C31.0519 41.2725 31.2303 41.2383 31.3968 41.2042C31.8011 41.1246 32.1579 40.9314 32.4909 40.7381L32.6336 40.6699C32.6336 40.6699 32.6812 40.6357 32.693 40.6357C32.693 40.6471 32.7049 40.6471 32.7049 40.6585C32.9666 41.7045 33.6087 42.5459 34.239 43.3531L34.3341 43.4896C34.679 43.9216 35.0001 44.3309 35.2617 44.7857C35.3568 44.9449 35.4639 45.1041 35.6423 45.2064C36.6769 45.7977 37.1763 46.7641 37.6996 47.776C38.9364 50.1523 39.8639 52.8242 40.7439 56.4285L40.7915 56.6331C40.9461 57.2698 41.0888 57.8611 41.1602 58.4409Z" fill="#F4F4F4"/>
<path d="M28.4005 43.4202C28.4361 44.4208 28.0794 45.3304 27.7107 46.0921L27.6037 46.3195C27.354 46.8653 27.0923 47.4224 26.6999 47.8999C26.6048 48.0364 26.4739 48.1046 26.3431 48.1046H26.3194C26.2004 48.0932 26.0934 48.0136 26.0221 47.8772C25.368 46.6379 24.6901 45.3531 24.4166 43.9319C24.2026 42.8745 24.4285 42.1468 25.1539 41.5897C25.2847 41.4874 25.4037 41.385 25.5226 41.2827C25.6296 41.1804 25.7366 41.0894 25.8437 40.9984C25.9388 40.9302 26.034 40.8961 26.1172 40.8961C26.2123 40.8961 26.2956 40.9302 26.3788 41.0098C26.6999 41.2941 27.0686 41.4646 27.5204 41.5442C27.9842 41.6238 28.234 41.9194 28.3053 42.4311C28.341 42.6357 28.3529 42.8631 28.3648 43.0791C28.3767 43.1928 28.3886 43.3179 28.4005 43.4202Z" fill="#EFEDE4"/>
<path d="M25.725 50.4022C24.9877 52.2328 23.9055 53.8587 22.526 55.2344C22.5142 55.2344 22.4904 55.2685 22.4904 55.2685C22.4428 55.3026 22.4071 55.3481 22.3714 55.3822C22.312 55.4391 22.2169 55.53 22.1931 55.5414C22.1217 55.5073 22.086 55.4618 22.0741 55.405C22.0622 55.3708 22.0742 55.3822 22.0504 55.3595C21.8125 54.9047 21.5271 53.7222 21.4439 53.3584C21.0514 51.8348 20.873 50.2885 20.9206 48.765C20.9325 48.3898 20.9325 48.0146 20.9325 47.6393C20.9325 47.0254 20.9325 46.4 20.9801 45.7861C21.0633 44.7514 21.3606 43.7395 21.5985 42.9777C21.7174 42.6252 21.8601 42.5457 22.3833 42.5457H22.5498C22.8115 42.5684 23.0731 42.5798 23.1088 42.6139C23.1325 42.648 23.1206 42.8185 23.1206 42.9663C23.1088 43.0459 23.1088 43.1369 23.1088 43.2278C23.0612 44.8765 23.7153 46.3204 24.405 47.6735C24.4288 47.7076 24.4526 47.753 24.4763 47.7872C24.5239 47.8667 24.5715 47.9463 24.5953 48.0373C24.7142 48.4239 24.9996 48.6626 25.2374 48.8218C25.8677 49.2652 26.0104 49.72 25.725 50.4022Z" fill="white"/>
<path d="M19.6838 56.1211C19.4936 56.3372 19.3152 56.5759 19.1487 56.8033C19.0654 56.917 18.9822 57.0307 18.899 57.1444C18.0546 58.2246 17.1627 59.2024 16.2589 60.0778C16.14 60.1915 15.9973 60.3052 15.8189 60.4303C15.4978 60.6463 15.3789 60.635 15.1411 60.328C14.8319 59.9414 14.6416 59.4752 14.5584 58.9067C14.4632 58.2473 14.4275 57.5651 14.3919 56.9057C14.3681 56.4281 14.3443 55.9506 14.2967 55.4731C14.2254 54.3474 14.2492 53.1877 14.4038 52.0166C14.4513 51.6187 14.4989 51.2207 14.5465 50.8114C14.6773 49.5948 14.82 48.3328 15.1767 47.1276C15.5335 45.9451 15.9735 45.0583 16.5919 44.342C16.8773 43.9895 17.1865 43.7735 17.5433 43.6598C18.2211 43.4551 18.7325 43.0458 19.2081 42.6479C19.4103 42.4659 19.5887 42.3864 19.779 42.3864C19.8384 42.3864 19.9098 42.3977 19.9692 42.4205C20.1714 42.4659 20.1833 42.5455 20.1714 42.6706C20.1476 42.7388 20.1357 42.807 20.1238 42.8753C20.1119 42.989 20.0882 43.1027 20.0525 43.2164C19.7671 44.1714 19.66 45.1379 19.5887 46.2976C19.5173 47.571 19.4817 48.617 19.4817 49.5948C19.4817 51.0957 19.7076 52.5169 20.1119 53.8244C20.4092 54.7568 20.2784 55.4617 19.6838 56.1211Z" fill="#F4F4F4"/>
<path d="M17.3404 38.6573C16.6507 39.8625 16.7696 40.7494 17.7567 41.7158C17.8042 41.7726 17.8161 41.7954 17.828 41.8067C17.8161 41.8067 17.8042 41.8295 17.7448 41.875C17.5902 41.9773 17.4118 42.0683 17.1858 42.1478C15.6637 42.6822 14.3912 43.6373 13.3209 44.49C11.5252 45.934 10.003 47.6395 8.75438 49.1062C7.94572 50.0613 7.05381 50.9367 6.20948 51.7326C5.55542 52.3466 5.05595 52.9606 4.66351 53.5973C4.43756 53.9611 4.15215 54.1203 3.74782 54.0748C2.64186 53.9725 2.40402 53.8588 2.15429 52.8582C2.01158 52.2215 1.9759 51.5734 1.96401 50.8003C1.91644 49.777 2.29699 48.64 2.64186 47.7645C3.55755 45.3996 5.12729 43.2166 7.44624 41.0677C9.39654 39.2713 11.3468 37.9751 13.4161 37.0769C14.7955 36.4857 15.9847 36.1787 17.1502 36.1105C17.281 36.1105 17.4118 36.1105 17.5426 36.0422C17.6615 35.9854 17.7686 35.9626 17.8875 35.9626C18.1134 35.9626 18.3394 36.0763 18.6367 36.3379C18.7913 36.4743 18.9697 36.6221 18.9815 36.6789C18.9815 36.7244 18.7794 36.9177 18.6486 37.0428C18.1134 37.5317 17.6734 38.0774 17.3404 38.6573Z" fill="white"/>
<path d="M17.6864 34.3938C17.4485 34.5758 17.1512 34.6099 16.8301 34.644H16.735C16.0809 34.7349 15.5339 34.8714 15.0463 35.0533C14.3804 35.3148 13.7144 35.5649 13.0485 35.8151C12.5371 36.0084 12.0139 36.213 11.4906 36.4063C11.3836 36.4518 11.3122 36.4632 11.2528 36.4404C10.4322 36.0766 9.54031 35.997 8.69597 35.9742C7.66136 35.9515 6.88837 35.3603 6.2581 34.8145C6.2462 34.8145 6.22243 34.7918 6.21054 34.7918C5.86567 34.4507 4.91431 34.0527 4.15322 33.7571C4.14132 33.7571 4.11753 33.7458 4.10564 33.7458C3.80834 33.6775 3.49914 33.5866 3.21373 33.4501C2.77373 33.2455 2.29805 33.0522 1.75102 32.8589C1.58453 32.8021 1.4775 32.7338 1.45372 32.6656C1.41804 32.5974 1.45372 32.4723 1.53697 32.3132C1.85805 31.6992 2.39319 31.2217 3.2732 30.7669C3.79645 30.5054 4.39106 30.3575 4.91431 30.3575H5.05701C5.68728 30.3575 6.09161 30.4371 6.44837 30.6418C7.15 31.0284 7.923 31.1875 8.6722 31.324L8.89813 31.3695C9.45706 31.4832 9.99221 31.7106 10.5036 31.9266C10.6582 31.9948 10.8246 32.063 10.9792 32.1199C12.9176 32.9158 15.0107 33.3592 17.1988 33.4501H17.3058C17.3058 33.4501 17.3891 33.4501 17.4128 33.4615C17.508 33.4843 17.615 33.4729 17.6983 33.4615C17.8647 33.4501 17.8766 33.4615 17.9123 33.5297C18.0193 33.8253 17.9123 34.2233 17.6864 34.3938Z" fill="#EFEDE4"/>
<path d="M42.7322 8.95845C42.7322 9.3564 42.649 9.7316 42.4944 10.0841C41.7571 11.71 41.2219 13.4268 40.7106 15.0868C40.6035 15.4165 40.5084 15.7463 40.4014 16.076C39.6046 18.5887 38.6057 21.5449 37.2857 24.3305C36.7505 25.4447 36.2392 26.4339 35.3829 27.2298C35.0737 27.5254 34.717 27.8551 34.3126 28.0939C33.7537 28.4123 33.1948 28.7988 32.6597 29.2536C32.398 29.4697 32.0888 29.5151 31.744 29.5606C31.7796 29.4356 31.8391 29.3219 31.8867 29.2082C32.3267 28.1849 32.1483 27.4799 31.2326 26.7864C30.6737 26.3543 30.0434 25.9109 29.2229 25.8199C28.985 25.7858 28.8066 25.6153 28.652 25.2628C28.2715 24.4101 28.1764 23.5346 28.3666 22.6819C28.771 20.8968 29.6391 19.2709 30.9353 17.8497C31.1256 17.6564 31.2802 17.4404 31.411 17.2243C31.5061 17.0879 31.6132 16.9742 31.7321 16.9173C31.7559 16.8946 31.7796 16.8719 31.7915 16.8491L33.0283 15.3938C33.0878 15.3256 33.1591 15.2574 33.2305 15.1891L34.8478 13.6997C35.1808 13.3472 35.5375 13.0175 35.8943 12.6991C36.2867 12.358 36.6792 11.9942 37.0359 11.6076C37.4878 11.1187 37.9516 10.6412 38.4154 10.175C38.6057 9.98174 38.7959 9.77708 38.9862 9.58379C39.4381 9.11763 39.7949 8.61736 40.0684 8.10571C40.3538 7.55996 41.2695 7.04832 41.9354 7.08243C42.0306 7.0938 42.0782 7.12791 42.1495 7.2416C42.5419 7.82147 42.7322 8.37859 42.7322 8.95845Z" fill="white"/>
<path d="M31.1349 15.588C30.3144 16.4634 29.2917 17.5549 28.5425 18.7715C27.5792 20.3519 27.0441 21.7277 26.8657 23.0921C26.7349 24.0699 26.8776 24.9795 27.3057 25.764C27.3295 25.7981 27.3414 25.8322 27.3414 25.8549H27.27C27.1035 25.8436 26.9489 25.8663 26.7824 25.8777C26.6992 25.889 26.6279 25.889 26.5089 25.9118C26.4376 25.9231 26.4019 25.9231 26.4019 25.9231C26.4019 25.9231 26.3781 25.8777 26.3781 25.7526C26.3781 24.8203 26.2116 23.9107 25.8668 22.967C25.3673 21.614 25.177 20.1814 25.0581 18.9534C25.0105 18.4418 25.0224 17.896 25.0462 17.3844C25.0462 17.1115 25.0581 16.8386 25.0581 16.5658C25.0819 16.418 25.1889 15.7016 25.3078 15.0536L25.3673 14.7011C25.6051 13.5073 25.8192 12.3817 26.616 11.438C27.1154 10.8467 27.7219 10.3806 28.4235 10.0622C28.6495 9.9485 29.0063 9.86891 29.4344 10.3464C29.7317 10.6875 29.9814 11.0855 30.1598 11.5517C30.469 12.3475 30.7663 13.1434 31.0636 13.9507L31.3133 14.6443C31.4679 15.0308 31.4203 15.3037 31.1349 15.588Z" fill="#F4F4F4"/>
<path d="M25.0717 25.6508C25.0361 26.2761 24.7388 26.7309 24.2036 26.9924C22.9787 27.6064 22.9074 28.6865 22.9668 29.4369V29.5052C22.9787 29.6189 22.9906 29.7325 22.9906 29.7553C22.9549 29.778 22.8004 29.8121 22.6814 29.8235C21.3495 30.0509 20.3149 30.4034 19.3992 30.9491C19.1971 31.0628 19.0425 31.1993 18.9235 31.3584C18.6738 31.7223 18.2933 31.9156 17.77 31.9383C16.8068 31.9838 15.9386 31.9042 15.13 31.6768C14.7851 31.5745 14.4521 31.4835 14.1073 31.3925C13.3937 31.1993 12.6564 30.9946 11.9429 30.7672C10.718 30.3579 9.48124 29.6871 8.17311 28.7206L7.43581 28.1863C6.29417 27.3449 5.10497 26.4694 3.99901 25.5484C3.63035 25.2415 3.29737 24.8776 2.98818 24.4683C2.82169 24.2637 2.76223 24.0931 2.8098 23.9567C2.84548 23.8202 3.00008 23.6952 3.26171 23.5815C4.34388 23.1608 5.5093 22.922 6.74607 22.8993C6.82931 22.8993 6.90066 22.8879 6.98391 22.8879C8.28014 22.8879 9.63584 23.1608 11.2294 23.7065C11.4791 23.7975 11.7289 23.8884 11.9786 23.968C12.6564 24.1954 13.3581 24.4228 14.0121 24.7526C14.8921 25.1732 15.6889 25.7531 16.45 26.3102C16.6165 26.4353 16.7711 26.549 16.9376 26.6627C17.0922 26.7764 17.2586 26.9015 17.4251 27.0152C17.7462 27.2653 18.0911 27.5154 18.4478 27.7428C19.1376 28.1976 19.8868 28.4364 20.6717 28.4591H21.1117C21.4447 28.4819 21.7895 28.4819 22.1344 28.4819C22.3484 28.4819 22.5149 28.3909 22.5982 28.2431C22.6814 28.1067 22.6695 27.9134 22.5506 27.7315C22.3841 27.4472 22.0987 27.2767 21.7776 27.2653C19.9462 27.163 18.7333 26.0942 17.6868 24.9572C16.9257 24.1272 16.343 23.1494 15.7959 22.1943L15.6889 22.0352C14.9754 20.8186 14.1667 19.6134 13.3937 18.4537C13.1559 18.1012 12.9181 17.7487 12.6802 17.3849C12.3591 16.896 12.1094 16.4071 11.9429 15.9295C11.5861 14.8608 11.0986 13.8261 10.6229 12.8369C10.4445 12.4731 10.2661 12.0979 10.0996 11.7341C9.80234 11.086 9.5526 10.4152 9.31476 9.75572L9.10069 9.14175C8.83907 8.44819 8.67258 7.75463 8.4942 6.97011C8.30393 6.11737 8.20879 5.20778 8.23258 4.18449C8.24447 3.97983 8.28014 3.80929 8.3396 3.65011C8.42284 3.47956 8.47041 3.44545 8.50609 3.43408C8.52987 3.43408 8.58935 3.43408 8.74394 3.52504C9.18395 3.78655 9.58827 4.11627 9.98071 4.42326C10.1234 4.53696 10.2661 4.65066 10.4088 4.76435C12.918 6.73134 14.7613 8.33449 16.3549 9.99449C17.7105 11.3816 19.0662 12.9393 20.6241 14.8835C22.3484 17.0438 23.3236 19.4769 24.0609 21.5804C24.156 21.8532 24.2512 22.1261 24.3582 22.3876C24.6198 23.0698 24.8934 23.7747 25.0004 24.5024C25.0479 24.8663 25.0955 25.2528 25.0717 25.6508Z" fill="white"/>
</svg>
