<svg width="20" height="20" viewBox="0 0 20 20" fill="none" xmlns="http://www.w3.org/2000/svg">
<path fill-rule="evenodd" clip-rule="evenodd" d="M12.2965 2.18487C13.8204 0.661034 16.291 0.661034 17.8148 2.18487C19.3387 3.7087 19.3387 6.17932 17.8148 7.70315L9.91041 15.6076C9.45881 16.0592 9.19297 16.3251 8.89722 16.5557C8.54864 16.8276 8.17147 17.0607 7.7724 17.2509C7.43382 17.4123 7.07713 17.5312 6.47121 17.7331L3.69528 18.6584L3.02688 18.8812C2.48474 19.0619 1.88703 18.9208 1.48295 18.5167C1.07887 18.1127 0.937767 17.5149 1.11848 16.9728L2.26658 13.5285C2.46854 12.9226 2.58742 12.5659 2.74878 12.2273C2.93897 11.8282 3.17207 11.451 3.44396 11.1025C3.67464 10.8067 3.94051 10.5409 4.39215 10.0893L12.2965 2.18487ZM3.66644 17.3504L6.03437 16.5611C6.69364 16.3413 6.97374 16.2468 7.23463 16.1225C7.55174 15.9714 7.85145 15.7861 8.12845 15.5701C8.35633 15.3924 8.56612 15.1841 9.05751 14.6927L15.3654 8.3848C14.7082 8.153 13.8615 7.72335 13.0689 6.93075C12.2763 6.13814 11.8467 5.29148 11.6149 4.63428L5.30699 10.9422C4.81561 11.4336 4.60734 11.6434 4.4296 11.8712C4.21355 12.1482 4.02832 12.4479 3.87719 12.7651C3.75286 13.026 3.65835 13.3061 3.43859 13.9653L2.64928 16.3333L3.66644 17.3504ZM12.6288 3.62036C12.6573 3.76616 12.7055 3.96436 12.7859 4.19605C12.9668 4.71768 13.3087 5.40273 13.9528 6.04686C14.597 6.691 15.282 7.03285 15.8036 7.21383C16.0353 7.29421 16.2335 7.34238 16.3793 7.37088L16.9309 6.81926C17.9666 5.78359 17.9666 4.10442 16.9309 3.06875C15.8953 2.03307 14.2161 2.03307 13.1804 3.06875L12.6288 3.62036Z" fill="#BBBBBB"/>
</svg>
