<svg width="16" height="18" viewBox="0 0 16 18" fill="none" xmlns="http://www.w3.org/2000/svg">
<path fill-rule="evenodd" clip-rule="evenodd" d="M6.59049 0.875016H9.40835C9.58868 0.874901 9.74578 0.874801 9.89413 0.89849C10.4802 0.992078 10.9874 1.35762 11.2615 1.88403C11.3309 2.01727 11.3805 2.16634 11.4374 2.33745L11.5304 2.61654C11.5461 2.66378 11.5507 2.67715 11.5545 2.68768C11.7004 3.09111 12.0788 3.36383 12.5076 3.3747C12.5189 3.37498 12.5327 3.37503 12.5828 3.37503H15.0828C15.4279 3.37503 15.7078 3.65485 15.7078 4.00003C15.7078 4.34521 15.4279 4.62503 15.0828 4.62503H0.916016C0.570838 4.62503 0.291016 4.34521 0.291016 4.00003C0.291016 3.65485 0.570838 3.37503 0.916016 3.37503H3.41609C3.46612 3.37503 3.47993 3.37498 3.49121 3.3747C3.92009 3.36383 4.29844 3.09113 4.44437 2.6877C4.44821 2.67709 4.45262 2.66401 4.46844 2.61654L4.56145 2.33747C4.61836 2.16637 4.66795 2.01728 4.73734 1.88403C5.01146 1.35762 5.51862 0.992078 6.1047 0.89849C6.25306 0.874801 6.41016 0.874901 6.59049 0.875016ZM5.50614 3.37503C5.54907 3.29085 5.5871 3.20337 5.61983 3.1129C5.62977 3.08543 5.63951 3.05619 5.65203 3.01861L5.7352 2.7691C5.81118 2.54118 5.82867 2.49469 5.84602 2.46137C5.9374 2.2859 6.10645 2.16405 6.30181 2.13285C6.33892 2.12693 6.38854 2.12503 6.6288 2.12503H9.37003C9.6103 2.12503 9.65992 2.12693 9.69702 2.13285C9.89238 2.16405 10.0614 2.2859 10.1528 2.46137C10.1702 2.49469 10.1877 2.54117 10.2636 2.7691L10.3468 3.01846L10.379 3.11292C10.4117 3.20338 10.4498 3.29085 10.4927 3.37503H5.50614Z" fill="#BBBBBB"/>
<path d="M2.92859 6.04179C2.90563 5.69738 2.60781 5.43679 2.2634 5.45975C1.91899 5.48271 1.6584 5.78053 1.68136 6.12494L2.06757 11.9181C2.13881 12.987 2.19636 13.8505 2.33134 14.528C2.47167 15.2324 2.71036 15.8208 3.20335 16.2821C3.69635 16.7433 4.2993 16.9423 5.01151 17.0355C5.69653 17.1251 6.56189 17.125 7.63318 17.125H8.3656C9.4369 17.125 10.3023 17.1251 10.9873 17.0355C11.6995 16.9423 12.3025 16.7433 12.7955 16.2821C13.2885 15.8208 13.5272 15.2324 13.6675 14.528C13.8025 13.8505 13.86 12.987 13.9313 11.9181L14.3175 6.12494C14.3404 5.78053 14.0799 5.48271 13.7354 5.45975C13.391 5.43679 13.0932 5.69738 13.0702 6.04179L12.687 11.7911C12.6121 12.9143 12.5587 13.6958 12.4416 14.2838C12.328 14.8542 12.1694 15.1561 11.9415 15.3692C11.7137 15.5824 11.4019 15.7206 10.8252 15.796C10.2307 15.8738 9.44736 15.875 8.32165 15.875H7.67718C6.55148 15.875 5.76814 15.8738 5.17364 15.796C4.59697 15.7206 4.28518 15.5824 4.05733 15.3692C3.82949 15.1561 3.67088 14.8542 3.55725 14.2838C3.44011 13.6958 3.38675 12.9143 3.31187 11.7911L2.92859 6.04179Z" fill="#BBBBBB"/>
<path d="M5.8539 7.5448C6.19737 7.51045 6.50364 7.76104 6.53799 8.10451L6.95466 12.2712C6.989 12.6146 6.73841 12.9209 6.39495 12.9553C6.05148 12.9896 5.74521 12.739 5.71086 12.3956L5.29419 8.22889C5.25985 7.88542 5.51044 7.57915 5.8539 7.5448Z" fill="#BBBBBB"/>
<path d="M10.1449 7.5448C10.4884 7.57915 10.739 7.88542 10.7047 8.22889L10.288 12.3956C10.2536 12.739 9.94737 12.9896 9.6039 12.9553C9.26044 12.9209 9.00985 12.6146 9.04419 12.2712L9.46086 8.10451C9.49521 7.76104 9.80148 7.51045 10.1449 7.5448Z" fill="#BBBBBB"/>
</svg>
